<?xml version="1.0" encoding="UTF-8"?>
<svg width="52px" height="52px" viewBox="0 0 52 52" version="1.1" xmlns="http://www.w3.org/2000/svg" xmlns:xlink="http://www.w3.org/1999/xlink">
    <!-- Generator: Sketch 53.2 (72643) - https://sketchapp.com -->
    <title>bitcoin</title>
    <desc>Created with Sketch.</desc>
    <g id="Page-1" stroke="none" stroke-width="1" fill="none" fill-rule="evenodd">
        <g id="payment-icons" transform="translate(-1903.000000, -2268.000000)">
            <g id="bitcoin" transform="translate(1903.000000, 2268.000000)">
                <g>
                    <rect id="Rectangle" fill="#F8921A" x="0" y="0" width="52" height="52" rx="26"></rect>
                    <path d="M38.6257857,21.8047143 C39.286,17.9205 36.5002857,15.7495 32.6532143,14.2498571 L34.0516429,8.99971429 L30.9966429,8.11757143 L29.6353571,13.2293571 C28.8214545,12.9972239 28.0051975,12.7734265 27.1867143,12.558 L28.5572857,7.41371429 L25.5041429,6.53157143 L24.1047857,11.7798571 C23.4399286,11.6025 22.7862143,11.427 22.1538571,11.245 L22.1575714,11.2292143 L17.9437143,10.0109286 L17.0355714,13.4234286 C17.0355714,13.4234286 19.3040714,14.0297857 19.2548571,14.0622857 C20.4917143,14.4207143 20.6941429,15.288 20.6384286,15.9705 L19.0468571,21.9505 C19.1313571,21.9755714 19.2418571,22.0108571 19.3635,22.0656429 L19.0403571,21.9727857 L16.8080714,30.3503571 C16.6455714,30.7422143 16.2435,31.3253571 15.3780714,31.0774286 C15.4077857,31.1238571 13.1587857,30.4348571 13.1587857,30.4348571 L11.5337857,34.0757857 L15.5099286,35.2235 C16.25,35.438 16.9742857,35.6617857 17.6874286,35.8735 L16.2750714,41.1821429 L19.3263571,42.0642857 L20.7257143,36.8113571 C21.5586429,37.0713571 22.3674286,37.3127857 23.1595,37.5402857 L21.7657143,42.7681429 L24.8207143,43.6502857 L26.2330714,38.3509286 C31.4516429,39.5255714 35.4073571,39.2107857 37.1967143,34.2949286 C38.6387857,30.3373571 37.2951429,27.9973571 34.5744286,26.4234286 C36.5968571,25.9916429 38.1475714,24.6489286 38.6257857,21.8047143 Z M31.3272143,31.9224286 C30.2723571,35.8911429 23.8977143,33.5641429 21.827,32.968 L23.7008571,25.9340714 C25.7715714,26.533 32.4303571,27.7847143 31.3281429,31.9233571 L31.3272143,31.9224286 Z M24.5579286,22.7137857 L26.2581429,16.3345 C27.9825,16.8322143 33.553,17.823 32.5510714,21.5883571 C31.5881429,25.1977143 26.2832143,23.2124286 24.5588571,22.7137857 L24.5579286,22.7137857 Z" id="Shape" fill="#FFFFFF" fill-rule="nonzero"></path>
                </g>
            </g>
        </g>
    </g>
</svg>