<?xml version="1.0" encoding="UTF-8"?>
<svg width="51px" height="40px" viewBox="0 0 51 40" version="1.1" xmlns="http://www.w3.org/2000/svg" xmlns:xlink="http://www.w3.org/1999/xlink">
    <title>mastercard</title>
    <g id="Page-1" stroke="none" stroke-width="1" fill="none" fill-rule="evenodd">
        <g id="payment-icons" transform="translate(-8425.000000, -403.000000)" fill-rule="nonzero">
            <g id="mastercard" transform="translate(8425.000000, 403.000000)">
                <path d="M9.30641026,39.6747253 L9.30641026,37.0373626 C9.33724568,36.5886572 9.17512312,36.1482678 8.86140306,35.828546 C8.54768299,35.5088241 8.11270348,35.3406882 7.6674359,35.367033 C7.08064565,35.3282408 6.51942569,35.6145775 6.20282051,36.1142857 C5.91416745,35.6294766 5.38563414,35.3427497 4.82538462,35.367033 C4.33757937,35.3421657 3.8731935,35.5796548 3.60487179,35.9912088 L3.60487179,35.4725275 L2.69820513,35.4725275 L2.69820513,39.6747253 L3.61358974,39.6747253 L3.61358974,37.3626374 C3.57416647,37.071688 3.66558257,36.778179 3.86289136,36.5622064 C4.06020016,36.3462338 4.34280658,36.2303409 4.63358974,36.2461538 C5.23512821,36.2461538 5.54025641,36.6417582 5.54025641,37.3538462 L5.54025641,39.6923077 L6.45564103,39.6923077 L6.45564103,37.3626374 C6.41783545,37.0720189 6.50981053,36.7794608 6.7067535,36.5638887 C6.90369648,36.3483166 7.18531724,36.2319397 7.47564103,36.2461538 C8.09461538,36.2461538 8.39102564,36.6417582 8.39102564,37.3538462 L8.39102564,39.6923077 L9.30641026,39.6747253 Z M22.8497436,35.4725275 L21.3589744,35.4725275 L21.3589744,34.1978022 L20.4435897,34.1978022 L20.4435897,35.4725275 L19.6153846,35.4725275 L19.6153846,36.3076923 L20.4610256,36.3076923 L20.4610256,38.2417582 C20.4610256,39.2175824 20.8358974,39.7978143 21.9082051,39.7978143 C22.3088204,39.7991592 22.7016726,39.6864079 23.0415385,39.4725275 L22.78,38.6901099 C22.5368578,38.8363559 22.2609032,38.9180232 21.9779487,38.9274725 C21.5420513,38.9274725 21.3764103,38.6461538 21.3764103,38.2241758 L21.3764103,36.3076923 L22.8584615,36.3076923 L22.8497436,35.4725275 Z M30.5825641,35.367033 C30.132246,35.353678 29.7107618,35.5898036 29.4841026,35.9824176 L29.4841026,35.4725275 L28.5861538,35.4725275 L28.5861538,39.6747253 L29.4928205,39.6747253 L29.4928205,37.3186813 C29.4928205,36.6241758 29.7892308,36.2373626 30.3646154,36.2373626 C30.5585393,36.2346877 30.7510886,36.270534 30.9312821,36.3428571 L31.2102564,35.4637363 C31.0031929,35.3890391 30.7850406,35.350393 30.5651282,35.3494505 L30.5825641,35.367033 Z M18.8917949,35.8065934 C18.3785801,35.498891 17.7885166,35.3463212 17.1917949,35.367033 C16.1369231,35.367033 15.4482051,35.8769231 15.4482051,36.7120879 C15.4482051,37.3978022 15.9538462,37.8197802 16.8866667,37.9516484 L17.3225641,38.0131868 C17.8194872,38.0835165 18.0548718,38.2153846 18.0548718,38.4527473 C18.0548718,38.778022 17.7235897,38.9626374 17.1046154,38.9626374 C16.6067344,38.9771702 16.118486,38.8223427 15.7184615,38.5230769 L15.2825641,39.2351648 C15.8107035,39.6070288 16.4432813,39.7980888 17.0871795,39.7802198 C18.2902564,39.7802198 18.9876923,39.2087912 18.9876923,38.4087912 C18.9876923,37.6087912 18.4384615,37.2835165 17.5317949,37.1516484 L17.0958974,37.0901099 C16.7035897,37.0373626 16.3897436,36.9582418 16.3897436,36.6769231 C16.3897436,36.3956044 16.6861538,36.1846154 17.1830769,36.1846154 C17.6423714,36.1899956 18.0926187,36.3140974 18.4907692,36.5450549 L18.8917949,35.8065934 Z M43.175641,35.367033 C42.7253229,35.353678 42.3038387,35.5898036 42.0771795,35.9824176 L42.0771795,35.4725275 L41.1792308,35.4725275 L41.1792308,39.6747253 L42.0858974,39.6747253 L42.0858974,37.3186813 C42.0858974,36.6241758 42.3823077,36.2373626 42.9576923,36.2373626 C43.1516162,36.2346877 43.3441655,36.270534 43.524359,36.3428571 L43.8033333,35.4637363 C43.5962698,35.3890391 43.3781176,35.350393 43.1582051,35.3494505 L43.175641,35.367033 Z M31.4935897,37.5648352 C31.4717852,38.1619494 31.7005124,38.7406869 32.1236288,39.1589928 C32.5467453,39.5772987 33.1250762,39.7964437 33.7166667,39.7626374 C34.2610497,39.790567 34.7960507,39.6117802 35.2161538,39.2615385 L34.7802564,38.5230769 C34.4668335,38.7640928 34.0846437,38.8966709 33.6905128,38.9010989 C32.9955619,38.844397 32.4602308,38.259125 32.4602308,37.556044 C32.4602308,36.8529629 32.9955619,36.2676909 33.6905128,36.210989 C34.0846437,36.215417 34.4668335,36.3479951 34.7802564,36.589011 L35.2161538,35.8505495 C34.7960507,35.5003077 34.2610497,35.3215209 33.7166667,35.3494505 C33.1250762,35.3156442 32.5467453,35.5347892 32.1236288,35.9530951 C31.7005124,36.3714011 31.4717852,36.9501385 31.4935897,37.5472527 L31.4935897,37.5648352 Z M39.9848718,37.5648352 L39.9848718,35.4725275 L39.0782051,35.4725275 L39.0782051,35.9824176 C38.7658425,35.5771209 38.2791948,35.3481102 37.7705128,35.367033 C36.5668153,35.367033 35.5910256,36.3510225 35.5910256,37.5648352 C35.5910256,38.7786478 36.5668153,39.7626374 37.7705128,39.7626374 C38.2791948,39.7815601 38.7658425,39.5525494 39.0782051,39.1472527 L39.0782051,39.6571429 L39.9848718,39.6571429 L39.9848718,37.5648352 Z M36.6110256,37.5648352 C36.651344,36.8750192 37.2310644,36.3442235 37.9158369,36.3701418 C38.6006094,36.3960601 39.1392405,36.9691848 39.1281659,37.6601076 C39.1170914,38.3510305 38.5603736,38.906302 37.8751282,38.9098901 C37.5262094,38.9143421 37.1913029,38.7716386 36.9512707,38.5162349 C36.7112385,38.2608312 36.5878967,37.9159405 36.6110256,37.5648352 L36.6110256,37.5648352 Z M25.67,35.367033 C24.4663025,35.3840263 23.5041739,36.3817918 23.5210256,37.5956044 C23.5378774,38.809417 24.5273281,39.7796307 25.7310256,39.7626374 C26.3581684,39.7950984 26.9749049,39.5914473 27.4615385,39.1912088 L27.025641,38.5142857 C26.6814398,38.79265 26.2550188,38.9473278 25.8138462,38.9538462 C25.1906725,39.0078902 24.6380478,38.5519431 24.5671795,37.9252747 L27.6620513,37.9252747 C27.6620513,37.810989 27.6620513,37.6967033 27.6620513,37.5736264 C27.6620513,36.2549451 26.8512821,35.3758242 25.6830769,35.3758242 L25.67,35.367033 Z M25.67,36.1846154 C25.9440064,36.1787246 26.2091049,36.2828702 26.4069452,36.4741292 C26.6047855,36.6653881 26.719152,36.928084 26.7248718,37.2043956 L24.5453846,37.2043956 C24.5782201,36.6175048 25.0699777,36.1645659 25.6525641,36.1846154 L25.67,36.1846154 Z M48.3846154,37.5736264 L48.3846154,33.7846154 L47.5128205,33.7846154 L47.5128205,35.9824176 C47.2004579,35.5771209 46.7138102,35.3481102 46.2051282,35.367033 C45.0014307,35.367033 44.025641,36.3510225 44.025641,37.5648352 C44.025641,38.7786478 45.0014307,39.7626374 46.2051282,39.7626374 C46.7138102,39.7815601 47.2004579,39.5525494 47.5128205,39.1472527 L47.5128205,39.6571429 L48.3846154,39.6571429 L48.3846154,37.5736264 Z M49.8971795,39.0637363 C49.9538518,39.0630361 50.0101156,39.0734876 50.0628205,39.0945055 C50.1128802,39.1151051 50.1587025,39.1449163 50.1979487,39.1824176 C50.2362507,39.2203171 50.2672837,39.2650226 50.2894872,39.3142857 C50.3341061,39.4180428 50.3341061,39.5358034 50.2894872,39.6395604 C50.2672837,39.6888236 50.2362507,39.7335291 50.1979487,39.7714286 C50.1587025,39.8089298 50.1128802,39.8387411 50.0628205,39.8593407 C50.0106359,39.8825605 49.9542185,39.8945377 49.8971795,39.8945056 C49.7285088,39.8932235 49.5757107,39.7939261 49.5048718,39.6395604 C49.4607695,39.5356959 49.4607695,39.4181502 49.5048718,39.3142857 C49.5270753,39.2650226 49.5581083,39.2203171 49.5964103,39.1824176 C49.6356565,39.1449163 49.6814788,39.1151051 49.7315385,39.0945055 C49.7883141,39.0717311 49.8492036,39.061248 49.9102564,39.0637363 L49.8971795,39.0637363 Z M49.8971795,39.8065934 C49.9406862,39.8068599 49.9837597,39.7978733 50.0235897,39.7802198 C50.0610928,39.7633352 50.095105,39.7394757 50.1238462,39.7098901 C50.236873,39.5855353 50.236873,39.3946845 50.1238462,39.2703297 C50.0951735,39.2406625 50.0611448,39.2167915 50.0235897,39.2 C49.9837204,39.1824709 49.9406733,39.1734898 49.8971795,39.1736248 C49.8537233,39.1738579 49.8107489,39.1828239 49.7707692,39.2 C49.7316059,39.2161934 49.6960399,39.2401033 49.6661538,39.2703297 C49.553127,39.3946845 49.553127,39.5855353 49.6661538,39.7098901 C49.6961133,39.7400262 49.7316603,39.7639233 49.7707692,39.7802198 C49.8147468,39.7993441 49.8623956,39.8083534 49.9102564,39.8065934 L49.8971795,39.8065934 Z M49.9233333,39.2835165 C49.9640249,39.2815266 50.0041229,39.2939681 50.0366667,39.3186813 C50.0637369,39.341273 50.0783435,39.3756412 50.0758974,39.410989 C50.0771628,39.4405078 50.0660943,39.4692088 50.0453846,39.4901099 C50.0201192,39.513251 49.9878883,39.5271803 49.9538462,39.5296703 L50.0802564,39.6747253 L49.98,39.6747253 L49.8623077,39.5296703 L49.8230769,39.5296703 L49.8230769,39.6747253 L49.7402564,39.6747253 L49.7402564,39.2879121 L49.9233333,39.2835165 Z M49.8274359,39.3582418 L49.8274359,39.4637363 L49.9233333,39.4637363 C49.9403981,39.4688667 49.9585763,39.4688667 49.975641,39.4637363 C49.9818582,39.4512946 49.9818582,39.4366175 49.975641,39.4241758 C49.9818582,39.4117342 49.9818582,39.397057 49.975641,39.3846154 C49.9585763,39.3794849 49.9403981,39.3794849 49.9233333,39.3846154 L49.8274359,39.3582418 Z M45.0325641,37.5736264 C45.0728824,36.8838104 45.6526029,36.3530147 46.3373754,36.378933 C47.0221478,36.4048513 47.5607789,36.977976 47.5497044,37.6688988 C47.5386298,38.3598217 46.9819121,38.9150932 46.2966667,38.9186813 C45.9477478,38.9231333 45.6128414,38.7804299 45.3728092,38.5250261 C45.132777,38.2696224 45.0094352,37.9247317 45.0325641,37.5736264 L45.0325641,37.5736264 Z M14.4194872,37.5736264 L14.4194872,35.4725275 L13.5128205,35.4725275 L13.5128205,35.9824176 C13.2004579,35.5771209 12.7138102,35.3481102 12.2051282,35.367033 C11.0014307,35.367033 10.025641,36.3510225 10.025641,37.5648352 C10.025641,38.7786478 11.0014307,39.7626374 12.2051282,39.7626374 C12.7138102,39.7815601 13.2004579,39.5525494 13.5128205,39.1472527 L13.5128205,39.6571429 L14.4194872,39.6571429 L14.4194872,37.5736264 Z M11.045641,37.5736264 C11.0859594,36.8838104 11.6656798,36.3530147 12.3504523,36.378933 C13.0352248,36.4048513 13.5738559,36.977976 13.5627813,37.6688988 C13.5517068,38.3598217 12.994989,38.9150932 12.3097436,38.9186813 C11.9593211,38.9256186 11.6220831,38.7840031 11.3801176,38.5283057 C11.1381522,38.2726084 11.0136524,37.9262818 11.0369231,37.5736264 L11.045641,37.5736264 Z" id="Shape" fill="#000000"></path>
                <g id="_Group_">
                    <polygon id="Rectangle-path" fill="#FF5F00" points="18.5910256 3.45054945 32.3217949 3.45054945 32.3217949 28.3340659 18.5910256 28.3340659"></polygon>
                    <path d="M19.4628205,15.8945055 C19.4576868,11.0380186 21.6679576,6.44903044 25.4564103,3.45054945 C19.0224727,-1.64832889 9.78308037,-0.905633164 4.23142985,5.15669003 C-1.32022067,11.2190132 -1.32022067,20.5656022 4.23142985,26.6279254 C9.78308037,32.6902485 19.0224727,33.4329443 25.4564103,28.3340659 C21.6691628,25.3365368 19.459027,20.7494499 19.4628205,15.8945055 L19.4628205,15.8945055 Z" id="_Path_" fill="#EB001B"></path>
                    <path d="M50.8474359,15.8945055 C50.8474359,21.9531342 47.4166706,27.4798463 42.01256,30.1274259 C36.6084494,32.7750055 30.1796161,32.0786351 25.4564103,28.3340659 C29.2420052,25.333992 31.4523073,20.7475149 31.4523073,15.8923077 C31.4523073,11.0371004 29.2420052,6.45062337 25.4564103,3.45054945 C30.1796161,-0.294019703 36.6084494,-0.990390076 42.01256,1.6571895 C47.4166706,4.30476908 50.8474359,9.83148115 50.8474359,15.8901099 L50.8474359,15.8945055 Z" id="Shape" fill="#F79E1B"></path>
                    <path d="M49.4301422,26.1069597 L49.4301422,25.2571429 L49.688668,25.2571429 L49.688668,25.0813187 L49.0341026,25.0813187 L49.0341026,25.2571429 L49.3146306,25.2571429 L49.3146306,26.1069597 L49.4301422,26.1069597 Z M50.7007692,26.1069597 L50.7007692,25.0813187 L50.5027494,25.0813187 L50.2717263,25.8139194 L50.0407032,25.0813187 L49.8646856,25.0813187 L49.8646856,26.1069597 L50.0076999,26.1069597 L50.0076999,25.3377289 L50.2222214,26.0043956 L50.3707362,26.0043956 L50.5852577,25.3377289 L50.5852577,26.1142857 L50.7007692,26.1069597 Z" id="Shape" fill="#F79E1B"></path>
                </g>
            </g>
        </g>
    </g>
</svg>